<?xml version="1.0" encoding="UTF-8"?>
<!DOCTYPE svg PUBLIC "-//W3C//DTD SVG 1.1//EN" "http://www.w3.org/Graphics/SVG/1.1/DTD/svg11.dtd">
<svg version="1.1" xmlns="http://www.w3.org/2000/svg" xmlns:xlink="http://www.w3.org/1999/xlink" x="0" y="0" width="345.892" height="345.895" viewBox="0, 0, 345.892, 345.895">
  <g id="Layer_1">
    <path d="M326.803,345.895 C337.343,345.895 345.892,337.347 345.892,326.805 L345.892,19.091 C345.892,8.546 337.343,0 326.803,0 L19.09,0 C8.545,0 0,8.546 0,19.091 L0,326.805 C0,337.347 8.545,345.895 19.09,345.895 L326.803,345.895" fill="#3A5285"/>
    <path d="M238.66,345.895 L238.66,211.947 L283.622,211.947 L290.353,159.744 L238.66,159.744 L238.66,126.416 C238.66,111.302 242.856,101.002 264.53,101.002 L292.174,100.989 L292.174,54.3 C287.392,53.665 270.983,52.243 251.893,52.243 C212.037,52.243 184.753,76.57 184.753,121.247 L184.753,159.744 L139.676,159.744 L139.676,211.947 L184.753,211.947 L184.753,345.895 L238.66,345.895" fill="#FFFFFE"/>
  </g>
</svg>
