<?xml version="1.0" encoding="UTF-8"?>
<!DOCTYPE svg PUBLIC "-//W3C//DTD SVG 1.1//EN" "http://www.w3.org/Graphics/SVG/1.1/DTD/svg11.dtd">
<svg version="1.1" xmlns="http://www.w3.org/2000/svg" xmlns:xlink="http://www.w3.org/1999/xlink" x="0" y="0" width="185.24" height="189.029" viewBox="0, 0, 185.24, 189.029">
  <g id="Layer_1">
    <path d="M63.618,5.182 C84.066,-1.895 106.972,-1.736 127.284,5.739 C138.565,9.881 148.891,16.434 157.699,24.585 C154.753,27.786 151.556,30.765 148.514,33.88 C142.715,39.669 136.933,45.479 131.123,51.257 C125.375,45.767 118.357,41.596 110.745,39.285 C101.789,36.575 92.143,36.202 82.995,38.155 C72.312,40.444 62.396,46.026 54.769,53.834 C48.586,60.095 43.879,67.788 41.051,76.116 C30.726,68.105 20.404,60.091 10.075,52.084 C20.954,30.303 40.575,13.071 63.618,5.182" fill="#D84138"/>
    <path d="M1.861,75.839 C3.522,67.6 6.287,59.589 10.075,52.084 C20.404,60.091 30.726,68.105 41.051,76.116 C36.975,87.933 37.005,101.094 41.033,112.922 C30.711,120.932 20.396,128.954 10.064,136.954 C0.595,118.256 -2.318,96.368 1.861,75.839" fill="#F1B728"/>
    <path d="M94.513,76.803 C124.16,76.799 153.808,76.792 183.455,76.807 C186.409,93.423 185.759,110.751 181.048,126.983 C176.729,141.864 168.571,155.711 157.134,166.221 C147.137,158.428 137.1,150.68 127.103,142.883 C137.033,136.249 144.036,125.473 146.026,113.689 C128.86,113.682 111.69,113.686 94.52,113.689 C94.498,101.396 94.517,89.1 94.513,76.803" fill="#5473AA"/>
    <path d="M10.064,136.954 C20.396,128.954 30.711,120.932 41.033,112.922 C44.972,124.55 52.643,134.883 62.695,141.945 C68.982,146.379 76.188,149.524 83.737,151.03 C91.161,152.533 98.851,152.37 106.293,151.1 C113.687,149.805 120.86,147.08 127.103,142.883 C137.1,150.68 147.137,158.428 157.134,166.221 C146.314,176.211 132.762,183.055 118.438,186.352 C102.59,189.958 85.83,190.054 70.086,185.831 C57.608,182.512 45.839,176.565 35.742,168.514 C25.04,160.008 16.217,149.159 10.064,136.954" fill="#339F50"/>
  </g>
</svg>
