<?xml version="1.0" encoding="UTF-8"?>
<!DOCTYPE svg PUBLIC "-//W3C//DTD SVG 1.1//EN" "http://www.w3.org/Graphics/SVG/1.1/DTD/svg11.dtd">
<svg version="1.1" xmlns="http://www.w3.org/2000/svg" xmlns:xlink="http://www.w3.org/1999/xlink" x="0" y="0" width="76.095" height="73.008" viewBox="0, 0, 76.095, 73.008">
  <g id="Layer_1">
    <path d="M51.188,36.157 C50.755,27.743 44.511,22.684 36.969,22.684 L36.685,22.684 C27.982,22.684 23.155,29.528 23.155,37.302 C23.155,46.008 28.995,51.506 36.651,51.506 C45.188,51.506 50.802,45.253 51.208,37.857 L51.188,36.157 z M36.728,15.157 C42.543,15.157 48.01,17.727 52.025,21.751 L52.025,21.767 C52.025,19.834 53.325,18.378 55.131,18.378 L55.587,18.375 C58.412,18.375 58.991,21.048 58.991,21.894 L59.005,51.938 C58.806,53.903 61.035,54.918 62.271,53.658 C67.095,48.7 72.866,28.172 59.272,16.277 C46.602,5.188 29.603,7.016 20.562,13.247 C10.951,19.876 4.801,34.545 10.775,48.323 C17.287,63.355 35.922,67.835 46.997,63.366 C52.605,61.102 55.196,68.684 49.371,71.16 C40.57,74.911 16.075,74.533 4.632,54.711 C-3.099,41.326 -2.687,17.775 17.817,5.574 C33.503,-3.759 54.183,-1.174 66.653,11.85 C79.688,25.464 78.928,50.957 66.213,60.874 C60.453,65.375 51.897,60.992 51.952,54.43 L51.892,52.284 C47.881,56.265 42.543,58.587 36.728,58.587 C25.237,58.587 15.127,48.476 15.127,36.989 C15.127,25.384 25.237,15.157 36.728,15.157" fill="#FFB73D"/>
  </g>
</svg>
