<?xml version="1.0" encoding="UTF-8"?>
<!DOCTYPE svg PUBLIC "-//W3C//DTD SVG 1.1//EN" "http://www.w3.org/Graphics/SVG/1.1/DTD/svg11.dtd">
<svg version="1.1" xmlns="http://www.w3.org/2000/svg" xmlns:xlink="http://www.w3.org/1999/xlink" x="0" y="0" width="124.382" height="206.781" viewBox="0, 0, 124.382, 206.781">
  <defs>
    <clipPath id="Clip_1">
      <path d="M0,206.781 L124.382,206.781 L124.382,0 L0,0 z"/>
    </clipPath>
  </defs>
  <g id="Layer_1">
    <g clip-path="url(#Clip_1)">
      <path d="M122.518,111.054 C119.563,105.119 111.379,100.181 100.503,108.75 C85.803,120.333 62.191,120.333 62.191,120.333 C62.191,120.333 38.579,120.333 23.878,108.75 C13.002,100.181 4.819,105.119 1.864,111.054 C-3.287,121.402 2.533,126.404 15.667,134.835 C26.885,142.037 42.299,144.727 52.253,145.733 L43.945,154.042 C32.241,165.745 20.943,177.043 13.105,184.882 C8.418,189.567 8.418,197.166 13.105,201.853 L14.519,203.267 C19.206,207.953 26.803,207.952 31.49,203.267 L62.33,172.427 C74.034,184.13 85.331,195.428 93.169,203.266 C97.855,207.952 105.454,207.952 110.14,203.266 L111.554,201.852 C116.241,197.165 116.24,189.567 111.554,184.881 L72.379,145.707 C82.341,144.681 97.59,141.977 108.715,134.835 C121.848,126.404 127.668,121.402 122.518,111.054 z M62.191,26.587 C76.411,26.587 87.939,38.115 87.939,52.334 C87.939,66.554 76.411,78.081 62.191,78.081 C47.971,78.081 36.444,66.554 36.444,52.334 C36.444,38.115 47.971,26.587 62.191,26.587 z M62.191,104.668 C91.094,104.668 114.526,81.237 114.526,52.334 C114.526,23.431 91.094,-0 62.191,-0 C33.287,-0 9.856,23.431 9.856,52.334 C9.856,81.237 33.287,104.668 62.191,104.668" fill="#D7772D"/>
    </g>
  </g>
</svg>
