<?xml version="1.0" encoding="UTF-8"?>
<!DOCTYPE svg PUBLIC "-//W3C//DTD SVG 1.1//EN" "http://www.w3.org/Graphics/SVG/1.1/DTD/svg11.dtd">
<svg version="1.1" xmlns="http://www.w3.org/2000/svg" xmlns:xlink="http://www.w3.org/1999/xlink" x="0" y="0" width="202.251" height="164.365" viewBox="0, 0, 202.251, 164.365">
  <g id="Layer_1">
    <path d="M202.251,19.456 C194.81,22.757 186.813,24.988 178.419,25.991 C186.986,20.855 193.566,12.724 196.663,3.034 C188.646,7.79 179.766,11.242 170.314,13.103 C162.745,5.039 151.96,0 140.027,0 C117.111,0 98.532,18.578 98.532,41.493 C98.532,44.745 98.899,47.912 99.607,50.949 C65.121,49.219 34.546,32.699 14.081,7.595 C10.509,13.723 8.463,20.85 8.463,28.455 C8.463,42.851 15.788,55.552 26.922,62.993 C20.12,62.777 13.722,60.911 8.128,57.802 C8.124,57.977 8.124,58.15 8.124,58.325 C8.124,78.429 22.427,95.199 41.409,99.011 C37.927,99.96 34.262,100.468 30.477,100.468 C27.804,100.468 25.204,100.207 22.67,99.724 C27.951,116.207 43.275,128.205 61.432,128.539 C47.231,139.667 29.34,146.302 9.899,146.302 C6.549,146.302 3.246,146.105 0,145.72 C18.363,157.496 40.174,164.365 63.607,164.365 C139.929,164.365 181.666,101.136 181.666,46.304 C181.666,44.506 181.626,42.717 181.546,40.936 C189.654,35.086 196.688,27.778 202.251,19.456" fill="#369ECC"/>
  </g>
</svg>
