<?xml version="1.0" encoding="UTF-8"?>
<!DOCTYPE svg PUBLIC "-//W3C//DTD SVG 1.1//EN" "http://www.w3.org/Graphics/SVG/1.1/DTD/svg11.dtd">
<svg version="1.1" xmlns="http://www.w3.org/2000/svg" xmlns:xlink="http://www.w3.org/1999/xlink" x="0" y="0" width="203" height="203" viewBox="0, 0, 203, 203">
  <g id="Layer_1">
    <path d="M31.281,0 L171.719,0 C188.995,0 203,14.005 203,31.281 L203,171.719 C203,188.995 188.995,203 171.719,203 L31.281,203 C14.005,203 0,188.995 0,171.719 L0,31.281 C0,14.005 14.005,0 31.281,0" fill="#4B6C92"/>
    <path d="M99.797,142.106 L108.101,142.106 C108.101,142.106 110.608,141.83 111.89,140.45 C113.069,139.182 113.031,136.803 113.031,136.803 C113.031,136.803 112.869,125.661 118.039,124.02 C123.138,122.403 129.684,134.788 136.622,139.551 C141.869,143.154 145.856,142.365 145.856,142.365 L164.409,142.106 C164.409,142.106 174.114,141.507 169.512,133.877 C169.135,133.254 166.831,128.232 155.717,117.916 C144.083,107.118 145.642,108.865 159.655,90.188 C168.19,78.813 171.601,71.87 170.535,68.896 C169.519,66.062 163.242,66.811 163.242,66.811 L142.353,66.94 C142.353,66.94 140.803,66.729 139.655,67.416 C138.533,68.087 137.812,69.657 137.812,69.657 C137.812,69.657 134.504,78.458 130.097,85.944 C120.795,101.739 117.075,102.575 115.555,101.593 C112.017,99.307 112.901,92.411 112.901,87.51 C112.901,72.203 115.223,65.821 108.38,64.169 C106.11,63.621 104.437,63.259 98.63,63.199 C91.176,63.124 84.868,63.222 81.296,64.972 C78.92,66.136 77.086,68.729 78.203,68.878 C79.584,69.062 82.71,69.722 84.368,71.977 C86.509,74.89 86.434,81.43 86.434,81.43 C86.434,81.43 87.665,99.449 83.562,101.687 C80.746,103.222 76.883,100.088 68.59,85.758 C64.342,78.418 61.133,70.304 61.133,70.304 C61.133,70.304 60.516,68.788 59.412,67.976 C58.074,66.993 56.203,66.681 56.203,66.681 L36.352,66.811 C36.352,66.811 33.373,66.894 32.278,68.19 C31.304,69.343 32.201,71.726 32.201,71.726 C32.201,71.726 47.741,108.085 65.338,126.408 C81.476,143.209 99.797,142.106 99.797,142.106" fill="#FFFFFE"/>
  </g>
</svg>
