<?xml version="1.0" encoding="UTF-8"?>
<!DOCTYPE svg PUBLIC "-//W3C//DTD SVG 1.1//EN" "http://www.w3.org/Graphics/SVG/1.1/DTD/svg11.dtd">
<svg version="1.1" xmlns="http://www.w3.org/2000/svg" xmlns:xlink="http://www.w3.org/1999/xlink" x="0" y="0" width="42.939" height="87.975" viewBox="0, 0, 42.939, 87.975">
  <g id="Layer_1">
    <path d="M27.835,6.184 C27.28,6.026 26.586,5.906 25.753,5.827 C24.921,5.748 24.227,5.708 23.672,5.708 C20.501,5.708 18.241,6.897 16.893,9.276 C15.228,12.527 14.395,16.769 14.395,22.002 C14.395,32.627 17.924,37.939 24.981,37.939 C25.377,37.939 25.813,37.939 26.289,37.939 C27.002,37.939 27.518,37.939 27.835,37.939 L27.835,6.184 z M37.587,6.422 L37.587,77.901 L42.939,77.901 L42.939,84.205 L22.364,84.205 L22.364,77.901 L27.835,77.901 L27.835,44.481 C27.359,44.402 26.685,44.362 25.813,44.362 C23.117,44.362 21.016,45.333 19.509,47.276 C18.003,49.218 16.84,52.555 16.536,57.326 L15.461,74.179 C14.95,82.202 12.011,86.741 7.255,87.856 C6.937,87.931 6.383,87.975 5.59,87.975 C3.846,87.975 1.982,87.42 -0,86.31 L-0,80.006 C2.062,80.006 3.512,79.574 4.163,78.579 C4.862,77.509 5.468,75.222 5.59,71.8 L6.07,58.396 C6.135,56.574 6.288,54.788 6.724,53.044 C7.16,51.3 7.775,49.634 8.568,48.049 C9.995,45.194 12.651,43.054 16.536,41.626 L14.158,40.556 L9.995,38.296 C5.872,35.125 3.81,29.653 3.81,21.883 C3.81,12.765 5.872,6.838 9.995,4.103 C14.118,1.367 18.122,0 22.007,0 L42.939,0 L42.939,6.422 L37.587,6.422" fill="#DF542A"/>
  </g>
</svg>
